<svg width="721" height="158" viewBox="0 0 721 158" fill="none" xmlns="http://www.w3.org/2000/svg">
<path d="M395.6 138H417.2V156H395.6V138Z" fill="white"/>
<path d="M469.428 111.6C469.428 110.4 469.028 109.4 468.228 108.6C467.428 107.8 466.428 107.4 465.228 107.4H462.228C458.868 107.4 455.948 107.56 453.468 107.88C451.068 108.2 449.188 108.44 447.828 108.6V139.8H464.628C467.828 139.8 469.428 138.2 469.428 135V111.6ZM447.828 93.6C455.588 92 462.388 91.2 468.228 91.2H472.428C477.868 91.2 482.228 92.84 485.508 96.12C488.788 99.4 490.428 103.76 490.428 109.2V136.8C490.428 142.8 488.708 147.52 485.268 150.96C481.908 154.32 477.228 156 471.228 156H426.828V72H447.828V93.6Z" fill="white"/>
<path d="M530.642 139.8C534.882 139.8 539.682 139 545.042 137.4V92.4H566.042V156H547.442L546.242 150C542.482 152.48 538.602 154.32 534.602 155.52C530.682 156.64 527.362 157.2 524.642 157.2H519.242C513.802 157.2 509.442 155.56 506.162 152.28C502.882 149 501.242 144.64 501.242 139.2V92.4H522.242V135.6C522.242 136.8 522.642 137.8 523.442 138.6C524.242 139.4 525.242 139.8 526.442 139.8H530.642Z" fill="white"/>
<path d="M604.4 94.8V156H583.4V111H574.4V94.8H604.4ZM583.4 70.8H604.4V87.6H583.4V70.8Z" fill="white"/>
<path d="M648.837 156C643.477 156.8 638.357 157.2 633.477 157.2C628.677 157.2 624.637 155.56 621.357 152.28C618.077 149 616.437 144.64 616.437 139.2V72H637.437V136.2C637.437 137.4 637.837 138.4 638.637 139.2C639.437 140 640.437 140.4 641.637 140.4H648.837V156Z" fill="white"/>
<path d="M702.219 156L701.019 150C697.259 152.48 693.379 154.32 689.379 155.52C685.459 156.64 682.139 157.2 679.419 157.2H674.019C668.579 157.2 664.219 155.56 660.939 152.28C657.659 149 656.019 144.64 656.019 139.2V111.6C656.019 105.6 657.699 100.92 661.059 97.56C664.499 94.12 669.219 92.4 675.219 92.4H699.819V72H720.819V156H702.219ZM685.419 139.8C689.659 139.8 694.459 139 699.819 137.4V108.6H681.819C678.619 108.6 677.019 110.2 677.019 113.4V135.6C677.019 136.8 677.419 137.8 678.219 138.6C679.019 139.4 680.019 139.8 681.219 139.8H685.419Z" fill="white"/>
<path d="M94.86 153.204H0V2.85599H94.86V31.212H21.42L30.6 22.644V63.852H87.72V90.78H30.6V133.416L21.42 124.848H94.86V153.204Z" fill="url(#paint0_linear_3_15)"/>
<path d="M150.477 153.204H120.081V2.85599H150.477L225.549 116.28H216.369V2.85599H246.561V153.204H216.369L141.093 39.984H150.477V153.204Z" fill="url(#paint1_linear_3_15)"/>
<path d="M266.462 45.9C266.462 36.924 268.774 29.036 273.398 22.236C278.158 15.3 284.618 9.86 292.778 5.916C301.074 1.972 310.526 0 321.134 0C331.742 0 340.854 1.90399 348.47 5.71199C356.222 9.38399 362.206 14.62 366.422 21.42C370.774 28.22 372.95 36.312 372.95 45.696H342.554C342.418 39.984 340.378 35.496 336.434 32.232C332.626 28.968 327.39 27.336 320.726 27.336C313.518 27.336 307.738 28.9 303.386 32.028C299.17 35.156 297.062 39.44 297.062 44.88C297.062 49.776 298.354 53.584 300.938 56.304C303.658 58.888 307.806 60.792 313.382 62.016L336.434 66.912C349.626 69.632 359.418 74.324 365.81 80.988C372.202 87.652 375.398 96.832 375.398 108.528C375.398 118.048 373.086 126.412 368.462 133.62C363.838 140.692 357.242 146.2 348.674 150.144C340.242 153.952 330.314 155.856 318.89 155.856C308.01 155.856 298.422 154.02 290.126 150.348C281.966 146.54 275.642 141.236 271.154 134.436C266.666 127.5 264.354 119.476 264.218 110.364H294.818C294.818 116.076 296.926 120.564 301.142 123.828C305.494 126.956 311.478 128.52 319.094 128.52C326.982 128.52 333.238 127.024 337.862 124.032C342.486 120.904 344.798 116.756 344.798 111.588C344.798 106.964 343.642 103.428 341.33 100.98C339.018 98.396 335.142 96.56 329.702 95.472L306.446 90.576C293.254 87.856 283.258 82.756 276.458 75.276C269.794 67.796 266.462 58.004 266.462 45.9Z" fill="url(#paint2_linear_3_15)"/>
<defs>
<linearGradient id="paint0_linear_3_15" x1="127.195" y1="283.043" x2="-46.957" y2="-413.581" gradientUnits="userSpaceOnUse">
<stop stop-color="#44BCF0"/>
<stop offset="0.378795" stop-color="#7298F8"/>
<stop offset="1" stop-color="#A099FF"/>
</linearGradient>
<linearGradient id="paint1_linear_3_15" x1="127.195" y1="283.043" x2="-46.957" y2="-413.581" gradientUnits="userSpaceOnUse">
<stop stop-color="#44BCF0"/>
<stop offset="0.378795" stop-color="#7298F8"/>
<stop offset="1" stop-color="#A099FF"/>
</linearGradient>
<linearGradient id="paint2_linear_3_15" x1="127.195" y1="283.043" x2="-46.957" y2="-413.581" gradientUnits="userSpaceOnUse">
<stop stop-color="#44BCF0"/>
<stop offset="0.378795" stop-color="#7298F8"/>
<stop offset="1" stop-color="#A099FF"/>
</linearGradient>
</defs>
</svg>
